<svg version="1.1"

width="200" height="300"
xmlns="http://www.w3.org/2000/svg">

<path
   style="fill:#000000;"
   d="M 10,8 L 14,4 L 42,4 L 46,8 L 42,12 L 14,12 L 10,8 z"
   id="top" />
<path
   style="fill:#000000;"
   d="M 8,10 L 12,14 L 12,42 L 8,46 L 4,42 L 4,14 L 8,10 z"
   id="top-left" />
<path
   style="fill:#000000;"
   d="M 48,10 L 52,14 L 52,42 L 48,46 L 44,42 L 44,14 L 48,10 z"
   id="top-right" />
<path
   style="fill:#000000;"
   d="M 10,48 L 14,44 L 42,44 L 46,48 L 42,52 L 14,52 L 10,48 z"
   id="middle"/>
<path
   style="fill:#000000;"
   d="M 8,50 L 12,54 L 12,82 L 8,86 L 4,82 L 4,54 L 8,50 z"
   id="bottom-left" />
<path
   style="fill:#000000;"
   d="M 48,50 L 52,54 L 52,82 L 48,86 L 44,82 L 44,54 L 48,50 z"
   id="bottom-right"/>
<path
   style="fill:#000000;"
   d="M 10,88 L 14,84 L 42,84 L 46,88 L 42,92 L 14,92 L 10,88 z"
   id="bottom" />
</svg>